<svg width="280" height="280" viewBox="0 0 280 280" fill="none" xmlns="http://www.w3.org/2000/svg">
<rect width="280" height="280" rx="10" fill="#141414"/>
<path d="M140 90L140 190" stroke="#F26419" stroke-width="10" stroke-linecap="round"/>
<path d="M190 140H90" stroke="#F26419" stroke-width="10" stroke-linecap="round"/>
<path d="M85.8181 46.0156V43.1818H102.704V46.0156H95.8962V65H92.615V46.0156H85.8181ZM110.699 65.3303C109.165 65.3303 107.826 64.9787 106.683 64.2756C105.539 63.5724 104.652 62.5888 104.019 61.3246C103.387 60.0604 103.071 58.5831 103.071 56.8928C103.071 55.1953 103.387 53.7109 104.019 52.4396C104.652 51.1683 105.539 50.1811 106.683 49.478C107.826 48.7749 109.165 48.4233 110.699 48.4233C112.233 48.4233 113.572 48.7749 114.715 49.478C115.859 50.1811 116.747 51.1683 117.379 52.4396C118.011 53.7109 118.327 55.1953 118.327 56.8928C118.327 58.5831 118.011 60.0604 117.379 61.3246C116.747 62.5888 115.859 63.5724 114.715 64.2756C113.572 64.9787 112.233 65.3303 110.699 65.3303ZM110.71 62.6562C111.704 62.6562 112.528 62.3935 113.181 61.8679C113.835 61.3423 114.318 60.6428 114.63 59.7692C114.95 58.8956 115.11 57.9332 115.11 56.8821C115.11 55.8381 114.95 54.8793 114.63 54.0057C114.318 53.125 113.835 52.4183 113.181 51.8857C112.528 51.353 111.704 51.0866 110.71 51.0866C109.708 51.0866 108.877 51.353 108.217 51.8857C107.563 52.4183 107.077 53.125 106.757 54.0057C106.445 54.8793 106.289 55.8381 106.289 56.8821C106.289 57.9332 106.445 58.8956 106.757 59.7692C107.077 60.6428 107.563 61.3423 108.217 61.8679C108.877 62.3935 109.708 62.6562 110.71 62.6562ZM121.883 65V48.6364H128.669C130.515 48.6364 131.978 49.0305 133.058 49.8189C134.138 50.6001 134.677 51.6619 134.677 53.0043C134.677 53.9631 134.372 54.723 133.761 55.2841C133.15 55.8452 132.341 56.2216 131.332 56.4134C132.064 56.4986 132.735 56.7187 133.346 57.0739C133.956 57.4219 134.446 57.8906 134.816 58.4801C135.192 59.0696 135.38 59.7727 135.38 60.5895C135.38 61.456 135.157 62.223 134.709 62.8906C134.262 63.5511 133.612 64.0696 132.76 64.446C131.915 64.8153 130.895 65 129.702 65H121.883ZM124.876 62.3366H129.702C130.491 62.3366 131.108 62.1484 131.556 61.772C132.003 61.3956 132.227 60.8842 132.227 60.2379C132.227 59.478 132.003 58.8814 131.556 58.4482C131.108 58.0078 130.491 57.7876 129.702 57.7876H124.876V62.3366ZM124.876 55.4545H128.701C129.297 55.4545 129.809 55.3693 130.235 55.1989C130.668 55.0284 130.998 54.7869 131.226 54.4744C131.46 54.1548 131.577 53.7784 131.577 53.3452C131.577 52.7131 131.318 52.2195 130.799 51.8643C130.281 51.5092 129.571 51.3317 128.669 51.3317H124.876V55.4545ZM143.637 65.3622C142.6 65.3622 141.662 65.1705 140.824 64.7869C139.986 64.3963 139.322 63.8317 138.832 63.093C138.349 62.3544 138.108 61.4489 138.108 60.3764C138.108 59.4531 138.285 58.6932 138.64 58.0966C138.995 57.5 139.475 57.0277 140.079 56.6797C140.682 56.3317 141.357 56.0689 142.103 55.8913C142.848 55.7138 143.608 55.5788 144.383 55.4865C145.363 55.3729 146.158 55.2805 146.769 55.2095C147.38 55.1314 147.824 55.0071 148.101 54.8366C148.378 54.6662 148.516 54.3892 148.516 54.0057V53.9311C148.516 53.0007 148.253 52.2798 147.728 51.7685C147.209 51.2571 146.435 51.0014 145.405 51.0014C144.333 51.0014 143.488 51.2393 142.87 51.7152C142.259 52.1839 141.836 52.706 141.602 53.2812L138.608 52.5994C138.964 51.6051 139.482 50.8026 140.164 50.1918C140.853 49.5739 141.645 49.1264 142.54 48.8494C143.434 48.5653 144.375 48.4233 145.363 48.4233C146.016 48.4233 146.709 48.5014 147.44 48.6577C148.179 48.8068 148.868 49.0838 149.507 49.4886C150.153 49.8935 150.682 50.4723 151.094 51.2251C151.506 51.9709 151.712 52.9403 151.712 54.1335V65H148.601V62.7628H148.473C148.267 63.1747 147.959 63.5795 147.547 63.9773C147.135 64.375 146.606 64.7053 145.959 64.968C145.313 65.2308 144.539 65.3622 143.637 65.3622ZM144.329 62.8054C145.21 62.8054 145.963 62.6314 146.588 62.2834C147.22 61.9354 147.699 61.4808 148.026 60.9197C148.36 60.3516 148.527 59.7443 148.527 59.098V56.9886C148.413 57.1023 148.193 57.2088 147.866 57.3082C147.547 57.4006 147.181 57.4822 146.769 57.5533C146.357 57.6172 145.956 57.6776 145.565 57.7344C145.174 57.7841 144.848 57.8267 144.585 57.8622C143.967 57.9403 143.402 58.0717 142.891 58.2564C142.387 58.4411 141.982 58.7074 141.677 59.0554C141.378 59.3963 141.229 59.8509 141.229 60.419C141.229 61.2074 141.52 61.804 142.103 62.2088C142.685 62.6065 143.427 62.8054 144.329 62.8054ZM155.955 71.1364V48.6364H159.066V51.2891H159.332C159.517 50.9482 159.783 50.554 160.131 50.1065C160.479 49.6591 160.962 49.2685 161.58 48.9347C162.198 48.5938 163.014 48.4233 164.03 48.4233C165.351 48.4233 166.53 48.7571 167.567 49.4247C168.604 50.0923 169.417 51.0547 170.007 52.3118C170.603 53.5689 170.902 55.0817 170.902 56.8501C170.902 58.6186 170.607 60.1349 170.017 61.3991C169.428 62.6562 168.618 63.6257 167.588 64.3075C166.559 64.9822 165.383 65.3196 164.062 65.3196C163.068 65.3196 162.255 65.1527 161.622 64.8189C160.997 64.4851 160.507 64.0945 160.152 63.647C159.797 63.1996 159.524 62.8018 159.332 62.4538H159.14V71.1364H155.955ZM159.076 56.8182C159.076 57.9687 159.243 58.9773 159.577 59.8438C159.911 60.7102 160.394 61.3885 161.026 61.8786C161.658 62.3615 162.432 62.603 163.348 62.603C164.3 62.603 165.095 62.3509 165.735 61.8466C166.374 61.3352 166.857 60.6428 167.184 59.7692C167.517 58.8956 167.684 57.9119 167.684 56.8182C167.684 55.7386 167.521 54.7692 167.194 53.9098C166.875 53.0504 166.392 52.3722 165.745 51.875C165.106 51.3778 164.307 51.1293 163.348 51.1293C162.425 51.1293 161.644 51.3672 161.005 51.843C160.372 52.3189 159.893 52.983 159.566 53.8352C159.24 54.6875 159.076 55.6818 159.076 56.8182ZM176.867 54.2614H181.619C183.622 54.2614 185.163 54.7585 186.242 55.7528C187.322 56.7472 187.862 58.0291 187.862 59.5987C187.862 60.6214 187.62 61.5412 187.137 62.358C186.654 63.1747 185.948 63.821 185.017 64.2969C184.087 64.7656 182.954 65 181.619 65H174.47V48.6364H177.592V62.2514H181.619C182.535 62.2514 183.288 62.0135 183.877 61.5376C184.467 61.0547 184.762 60.4403 184.762 59.6946C184.762 58.9062 184.467 58.2635 183.877 57.7663C183.288 57.2621 182.535 57.0099 181.619 57.0099H176.867V54.2614ZM190.184 65V48.6364H193.37V65H190.184Z" fill="white"/>
<path d="M68.4236 237V220.636H71.6089V227.497H73.143L78.5443 220.636H82.4861L76.1473 228.594L82.5606 237H78.6082L73.6757 230.459H71.6089V237H68.4236ZM89.797 237.362C88.76 237.362 87.8225 237.17 86.9845 236.787C86.1464 236.396 85.4823 235.832 84.9923 235.093C84.5093 234.354 84.2678 233.449 84.2678 232.376C84.2678 231.453 84.4454 230.693 84.8005 230.097C85.1556 229.5 85.635 229.028 86.2387 228.68C86.8424 228.332 87.5171 228.069 88.2629 227.891C89.0086 227.714 89.7686 227.579 90.5427 227.487C91.5228 227.373 92.3183 227.281 92.9291 227.21C93.5399 227.131 93.9838 227.007 94.2607 226.837C94.5377 226.666 94.6762 226.389 94.6762 226.006V225.931C94.6762 225.001 94.4134 224.28 93.8879 223.768C93.3694 223.257 92.5953 223.001 91.5654 223.001C90.493 223.001 89.6478 223.239 89.0299 223.715C88.4191 224.184 87.9965 224.706 87.7622 225.281L84.7686 224.599C85.1237 223.605 85.6421 222.803 86.324 222.192C87.0129 221.574 87.8048 221.126 88.6997 220.849C89.5945 220.565 90.5356 220.423 91.5228 220.423C92.1762 220.423 92.8687 220.501 93.6002 220.658C94.3389 220.807 95.0278 221.084 95.667 221.489C96.3133 221.893 96.8424 222.472 97.2544 223.225C97.6663 223.971 97.8722 224.94 97.8722 226.134V237H94.7615V234.763H94.6336C94.4276 235.175 94.1187 235.58 93.7068 235.977C93.2948 236.375 92.7657 236.705 92.1194 236.968C91.4731 237.231 90.699 237.362 89.797 237.362ZM90.4894 234.805C91.3701 234.805 92.123 234.631 92.748 234.283C93.3801 233.935 93.8595 233.481 94.1862 232.92C94.52 232.352 94.6869 231.744 94.6869 231.098V228.989C94.5732 229.102 94.3531 229.209 94.0264 229.308C93.7068 229.401 93.341 229.482 92.9291 229.553C92.5171 229.617 92.1159 229.678 91.7252 229.734C91.3346 229.784 91.0079 229.827 90.7451 229.862C90.1272 229.94 89.5626 230.072 89.0512 230.256C88.547 230.441 88.1421 230.707 87.8367 231.055C87.5384 231.396 87.3893 231.851 87.3893 232.419C87.3893 233.207 87.6805 233.804 88.2629 234.209C88.8453 234.607 89.5874 234.805 90.4894 234.805ZM100.085 223.385V220.636H113.892V223.385H108.555V237H105.444V223.385H100.085ZM123.552 237.33C121.94 237.33 120.552 236.986 119.387 236.297C118.229 235.601 117.334 234.624 116.702 233.367C116.077 232.103 115.765 230.622 115.765 228.925C115.765 227.249 116.077 225.771 116.702 224.493C117.334 223.214 118.215 222.217 119.344 221.499C120.481 220.782 121.809 220.423 123.329 220.423C124.252 220.423 125.147 220.576 126.013 220.881C126.88 221.187 127.657 221.666 128.346 222.32C129.035 222.973 129.579 223.822 129.976 224.866C130.374 225.903 130.573 227.163 130.573 228.648V229.777H117.565V227.391H127.451C127.451 226.553 127.281 225.81 126.94 225.164C126.599 224.511 126.12 223.996 125.502 223.619C124.891 223.243 124.174 223.055 123.35 223.055C122.455 223.055 121.674 223.275 121.006 223.715C120.346 224.148 119.834 224.717 119.472 225.42C119.117 226.116 118.939 226.872 118.939 227.689V229.553C118.939 230.647 119.131 231.577 119.515 232.344C119.905 233.112 120.449 233.697 121.145 234.102C121.841 234.5 122.654 234.699 123.584 234.699C124.188 234.699 124.738 234.614 125.236 234.443C125.733 234.266 126.162 234.003 126.525 233.655C126.887 233.307 127.164 232.877 127.356 232.366L130.37 232.909C130.129 233.797 129.696 234.575 129.071 235.242C128.453 235.903 127.675 236.418 126.738 236.787C125.807 237.149 124.745 237.33 123.552 237.33ZM144.569 220.636V223.385H137.25V237H134.107V220.636H144.569ZM154.066 237.33C152.532 237.33 151.193 236.979 150.05 236.276C148.907 235.572 148.019 234.589 147.387 233.325C146.755 232.06 146.438 230.583 146.438 228.893C146.438 227.195 146.755 225.711 147.387 224.44C148.019 223.168 148.907 222.181 150.05 221.478C151.193 220.775 152.532 220.423 154.066 220.423C155.6 220.423 156.939 220.775 158.083 221.478C159.226 222.181 160.114 223.168 160.746 224.44C161.378 225.711 161.694 227.195 161.694 228.893C161.694 230.583 161.378 232.06 160.746 233.325C160.114 234.589 159.226 235.572 158.083 236.276C156.939 236.979 155.6 237.33 154.066 237.33ZM154.077 234.656C155.071 234.656 155.895 234.393 156.549 233.868C157.202 233.342 157.685 232.643 157.997 231.769C158.317 230.896 158.477 229.933 158.477 228.882C158.477 227.838 158.317 226.879 157.997 226.006C157.685 225.125 157.202 224.418 156.549 223.886C155.895 223.353 155.071 223.087 154.077 223.087C153.076 223.087 152.245 223.353 151.584 223.886C150.931 224.418 150.444 225.125 150.125 226.006C149.812 226.879 149.656 227.838 149.656 228.882C149.656 229.933 149.812 230.896 150.125 231.769C150.444 232.643 150.931 233.342 151.584 233.868C152.245 234.393 153.076 234.656 154.077 234.656ZM165.25 243.136V220.636H168.361V223.289H168.627C168.812 222.948 169.078 222.554 169.426 222.107C169.774 221.659 170.257 221.268 170.875 220.935C171.493 220.594 172.309 220.423 173.325 220.423C174.646 220.423 175.825 220.757 176.862 221.425C177.899 222.092 178.712 223.055 179.302 224.312C179.898 225.569 180.196 227.082 180.196 228.85C180.196 230.619 179.902 232.135 179.312 233.399C178.723 234.656 177.913 235.626 176.883 236.308C175.853 236.982 174.678 237.32 173.357 237.32C172.363 237.32 171.549 237.153 170.917 236.819C170.292 236.485 169.802 236.094 169.447 235.647C169.092 235.2 168.819 234.802 168.627 234.454H168.435V243.136H165.25ZM168.371 228.818C168.371 229.969 168.538 230.977 168.872 231.844C169.206 232.71 169.689 233.388 170.321 233.879C170.953 234.362 171.727 234.603 172.643 234.603C173.595 234.603 174.39 234.351 175.03 233.847C175.669 233.335 176.152 232.643 176.478 231.769C176.812 230.896 176.979 229.912 176.979 228.818C176.979 227.739 176.816 226.769 176.489 225.91C176.169 225.05 175.687 224.372 175.04 223.875C174.401 223.378 173.602 223.129 172.643 223.129C171.72 223.129 170.939 223.367 170.299 223.843C169.667 224.319 169.188 224.983 168.861 225.835C168.535 226.687 168.371 227.682 168.371 228.818ZM186.887 232.536L194.099 220.636H197.53V237H194.408V225.089L187.228 237H183.765V220.636H186.887V232.536ZM204.934 232.536L212.146 220.636H215.576V237H212.455V225.089L205.275 237H201.812V220.636H204.934V232.536Z" fill="white"/>
</svg>
