<svg width="417" height="280" viewBox="0 0 417 280" fill="none" xmlns="http://www.w3.org/2000/svg">
<rect width="417" height="280" rx="10" fill="#141414"/>
<path d="M209 59L209 159" stroke="#F26419" stroke-width="10" stroke-linecap="round"/>
<path d="M259 109L159 109" stroke="#F26419" stroke-width="10" stroke-linecap="round"/>
<path d="M12.7614 198.688V194.909H35.2756V198.688H26.1989V224H21.8239V198.688H12.7614ZM45.9361 224.44C43.8906 224.44 42.1056 223.972 40.581 223.034C39.0563 222.097 37.8726 220.785 37.0298 219.099C36.187 217.414 35.7656 215.444 35.7656 213.19C35.7656 210.927 36.187 208.948 37.0298 207.253C37.8726 205.558 39.0563 204.241 40.581 203.304C42.1056 202.366 43.8906 201.898 45.9361 201.898C47.9815 201.898 49.7666 202.366 51.2912 203.304C52.8158 204.241 53.9995 205.558 54.8423 207.253C55.6851 208.948 56.1065 210.927 56.1065 213.19C56.1065 215.444 55.6851 217.414 54.8423 219.099C53.9995 220.785 52.8158 222.097 51.2912 223.034C49.7666 223.972 47.9815 224.44 45.9361 224.44ZM45.9503 220.875C47.276 220.875 48.3745 220.525 49.2457 219.824C50.117 219.123 50.7609 218.19 51.1776 217.026C51.6037 215.861 51.8168 214.578 51.8168 213.176C51.8168 211.784 51.6037 210.506 51.1776 209.341C50.7609 208.167 50.117 207.224 49.2457 206.514C48.3745 205.804 47.276 205.449 45.9503 205.449C44.6151 205.449 43.5071 205.804 42.6264 206.514C41.7552 207.224 41.1065 208.167 40.6804 209.341C40.2637 210.506 40.0554 211.784 40.0554 213.176C40.0554 214.578 40.2637 215.861 40.6804 217.026C41.1065 218.19 41.7552 219.123 42.6264 219.824C43.5071 220.525 44.6151 220.875 45.9503 220.875ZM60.8473 224V202.182H69.8956C72.3577 202.182 74.3085 202.707 75.7479 203.759C77.1873 204.8 77.907 206.216 77.907 208.006C77.907 209.284 77.4998 210.297 76.6854 211.045C75.871 211.794 74.7914 212.295 73.4467 212.551C74.4221 212.665 75.317 212.958 76.1314 213.432C76.9458 213.896 77.5992 214.521 78.0916 215.307C78.5935 216.093 78.8445 217.03 78.8445 218.119C78.8445 219.275 78.5462 220.297 77.9496 221.188C77.353 222.068 76.4865 222.759 75.3501 223.261C74.2232 223.754 72.8643 224 71.2734 224H60.8473ZM64.8388 220.449H71.2734C72.3246 220.449 73.1484 220.198 73.745 219.696C74.3416 219.194 74.6399 218.512 74.6399 217.651C74.6399 216.637 74.3416 215.842 73.745 215.264C73.1484 214.677 72.3246 214.384 71.2734 214.384H64.8388V220.449ZM64.8388 211.273H69.9382C70.7337 211.273 71.4155 211.159 71.9837 210.932C72.5613 210.705 73.0017 210.383 73.3047 209.966C73.6172 209.54 73.7734 209.038 73.7734 208.46C73.7734 207.617 73.4278 206.959 72.7365 206.486C72.0452 206.012 71.0982 205.776 69.8956 205.776H64.8388V211.273ZM89.853 224.483C88.4704 224.483 87.2204 224.227 86.103 223.716C84.9856 223.195 84.1001 222.442 83.4467 221.457C82.8028 220.473 82.4808 219.265 82.4808 217.835C82.4808 216.604 82.7176 215.591 83.1911 214.795C83.6645 214 84.3037 213.37 85.1087 212.906C85.9136 212.442 86.8132 212.092 87.8075 211.855C88.8018 211.618 89.8151 211.438 90.8473 211.315C92.1541 211.164 93.2147 211.041 94.0291 210.946C94.8435 210.842 95.4354 210.676 95.8047 210.449C96.174 210.222 96.3587 209.852 96.3587 209.341V209.241C96.3587 208.001 96.0083 207.04 95.3075 206.358C94.6162 205.676 93.584 205.335 92.2109 205.335C90.781 205.335 89.6541 205.652 88.8303 206.287C88.0159 206.912 87.4524 207.608 87.1399 208.375L83.1484 207.466C83.6219 206.14 84.3132 205.07 85.2223 204.256C86.1409 203.432 87.1967 202.835 88.3899 202.466C89.5831 202.087 90.8378 201.898 92.1541 201.898C93.0253 201.898 93.9486 202.002 94.924 202.21C95.9089 202.409 96.8274 202.778 97.6797 203.318C98.5414 203.858 99.2469 204.63 99.7962 205.634C100.345 206.628 100.62 207.92 100.62 209.511V224H96.4723V221.017H96.3018C96.0272 221.566 95.6153 222.106 95.0661 222.636C94.5168 223.167 93.8113 223.607 92.9496 223.957C92.0878 224.308 91.0556 224.483 89.853 224.483ZM90.7763 221.074C91.9505 221.074 92.9543 220.842 93.7876 220.378C94.6304 219.914 95.2697 219.308 95.7053 218.56C96.1503 217.802 96.3729 216.992 96.3729 216.131V213.318C96.2214 213.47 95.9278 213.612 95.4922 213.744C95.0661 213.867 94.5784 213.976 94.0291 214.071C93.4799 214.156 92.9448 214.237 92.424 214.312C91.9032 214.379 91.4676 214.436 91.1172 214.483C90.2933 214.587 89.5405 214.762 88.8587 215.009C88.1863 215.255 87.6465 215.61 87.2393 216.074C86.8416 216.528 86.6428 217.134 86.6428 217.892C86.6428 218.943 87.031 219.739 87.8075 220.278C88.584 220.809 89.5736 221.074 90.7763 221.074ZM106.277 232.182V202.182H110.425V205.719H110.78C111.026 205.264 111.381 204.739 111.845 204.142C112.309 203.545 112.953 203.025 113.777 202.58C114.601 202.125 115.69 201.898 117.044 201.898C118.805 201.898 120.377 202.343 121.76 203.233C123.143 204.123 124.227 205.406 125.013 207.082C125.808 208.759 126.206 210.776 126.206 213.134C126.206 215.491 125.813 217.513 125.027 219.199C124.241 220.875 123.161 222.168 121.788 223.077C120.415 223.976 118.848 224.426 117.087 224.426C115.761 224.426 114.677 224.204 113.834 223.759C113 223.313 112.347 222.793 111.874 222.196C111.4 221.599 111.036 221.069 110.78 220.605H110.524V232.182H106.277ZM110.439 213.091C110.439 214.625 110.661 215.97 111.107 217.125C111.552 218.28 112.196 219.185 113.038 219.838C113.881 220.482 114.913 220.804 116.135 220.804C117.404 220.804 118.464 220.468 119.317 219.795C120.169 219.114 120.813 218.19 121.249 217.026C121.694 215.861 121.916 214.549 121.916 213.091C121.916 211.652 121.698 210.359 121.263 209.213C120.837 208.067 120.193 207.163 119.331 206.5C118.479 205.837 117.413 205.506 116.135 205.506C114.904 205.506 113.862 205.823 113.01 206.457C112.167 207.092 111.528 207.977 111.092 209.114C110.657 210.25 110.439 211.576 110.439 213.091ZM134.161 209.682H140.496C143.166 209.682 145.221 210.345 146.661 211.67C148.1 212.996 148.82 214.705 148.82 216.798C148.82 218.162 148.498 219.388 147.854 220.477C147.21 221.566 146.268 222.428 145.027 223.062C143.786 223.688 142.276 224 140.496 224H130.964V202.182H135.126V220.335H140.496C141.717 220.335 142.721 220.018 143.507 219.384C144.293 218.74 144.686 217.92 144.686 216.926C144.686 215.875 144.293 215.018 143.507 214.355C142.721 213.683 141.717 213.347 140.496 213.347H134.161V209.682ZM151.916 224V202.182H156.163V224H151.916ZM176.611 218.048L186.227 202.182H190.801V224H186.639V208.119L177.065 224H172.449V202.182H176.611V218.048ZM207.097 224V202.182H211.344V211.33H213.39L220.592 202.182H225.847L217.396 212.793L225.947 224H220.677L214.1 215.278H211.344V224H207.097ZM235.595 224.483C234.213 224.483 232.963 224.227 231.845 223.716C230.728 223.195 229.842 222.442 229.189 221.457C228.545 220.473 228.223 219.265 228.223 217.835C228.223 216.604 228.46 215.591 228.933 214.795C229.407 214 230.046 213.37 230.851 212.906C231.656 212.442 232.555 212.092 233.55 211.855C234.544 211.618 235.557 211.438 236.589 211.315C237.896 211.164 238.957 211.041 239.771 210.946C240.586 210.842 241.178 210.676 241.547 210.449C241.916 210.222 242.101 209.852 242.101 209.341V209.241C242.101 208.001 241.75 207.04 241.05 206.358C240.358 205.676 239.326 205.335 237.953 205.335C236.523 205.335 235.396 205.652 234.572 206.287C233.758 206.912 233.195 207.608 232.882 208.375L228.891 207.466C229.364 206.14 230.055 205.07 230.964 204.256C231.883 203.432 232.939 202.835 234.132 202.466C235.325 202.087 236.58 201.898 237.896 201.898C238.768 201.898 239.691 202.002 240.666 202.21C241.651 202.409 242.57 202.778 243.422 203.318C244.284 203.858 244.989 204.63 245.538 205.634C246.088 206.628 246.362 207.92 246.362 209.511V224H242.214V221.017H242.044C241.769 221.566 241.357 222.106 240.808 222.636C240.259 223.167 239.554 223.607 238.692 223.957C237.83 224.308 236.798 224.483 235.595 224.483ZM236.518 221.074C237.693 221.074 238.696 220.842 239.53 220.378C240.373 219.914 241.012 219.308 241.447 218.56C241.893 217.802 242.115 216.992 242.115 216.131V213.318C241.964 213.47 241.67 213.612 241.234 213.744C240.808 213.867 240.321 213.976 239.771 214.071C239.222 214.156 238.687 214.237 238.166 214.312C237.645 214.379 237.21 214.436 236.859 214.483C236.036 214.587 235.283 214.762 234.601 215.009C233.929 215.255 233.389 215.61 232.982 216.074C232.584 216.528 232.385 217.134 232.385 217.892C232.385 218.943 232.773 219.739 233.55 220.278C234.326 220.809 235.316 221.074 236.518 221.074ZM249.313 205.847V202.182H267.722V205.847H260.606V224H256.458V205.847H249.313ZM280.602 224.44C278.453 224.44 276.601 223.981 275.048 223.062C273.505 222.134 272.312 220.832 271.469 219.156C270.635 217.471 270.219 215.496 270.219 213.233C270.219 210.998 270.635 209.028 271.469 207.324C272.312 205.619 273.486 204.289 274.991 203.332C276.507 202.376 278.277 201.898 280.304 201.898C281.535 201.898 282.728 202.101 283.884 202.509C285.039 202.916 286.076 203.555 286.994 204.426C287.913 205.297 288.637 206.429 289.168 207.821C289.698 209.204 289.963 210.884 289.963 212.864V214.369H272.619V211.188H285.801C285.801 210.07 285.574 209.08 285.119 208.219C284.665 207.348 284.026 206.661 283.202 206.159C282.387 205.657 281.431 205.406 280.332 205.406C279.139 205.406 278.098 205.7 277.207 206.287C276.327 206.865 275.645 207.622 275.162 208.56C274.688 209.488 274.452 210.496 274.452 211.585V214.071C274.452 215.529 274.707 216.77 275.219 217.793C275.74 218.815 276.464 219.597 277.392 220.136C278.32 220.667 279.404 220.932 280.645 220.932C281.45 220.932 282.184 220.818 282.847 220.591C283.509 220.354 284.082 220.004 284.565 219.54C285.048 219.076 285.418 218.503 285.673 217.821L289.693 218.545C289.371 219.729 288.794 220.766 287.96 221.656C287.136 222.537 286.099 223.223 284.849 223.716C283.609 224.199 282.193 224.44 280.602 224.44ZM308.624 202.182V205.847H298.866V224H294.675V202.182H308.624ZM321.288 224.44C319.242 224.44 317.457 223.972 315.933 223.034C314.408 222.097 313.224 220.785 312.381 219.099C311.539 217.414 311.117 215.444 311.117 213.19C311.117 210.927 311.539 208.948 312.381 207.253C313.224 205.558 314.408 204.241 315.933 203.304C317.457 202.366 319.242 201.898 321.288 201.898C323.333 201.898 325.118 202.366 326.643 203.304C328.167 204.241 329.351 205.558 330.194 207.253C331.037 208.948 331.458 210.927 331.458 213.19C331.458 215.444 331.037 217.414 330.194 219.099C329.351 220.785 328.167 222.097 326.643 223.034C325.118 223.972 323.333 224.44 321.288 224.44ZM321.302 220.875C322.628 220.875 323.726 220.525 324.597 219.824C325.469 219.123 326.112 218.19 326.529 217.026C326.955 215.861 327.168 214.578 327.168 213.176C327.168 211.784 326.955 210.506 326.529 209.341C326.112 208.167 325.469 207.224 324.597 206.514C323.726 205.804 322.628 205.449 321.302 205.449C319.967 205.449 318.859 205.804 317.978 206.514C317.107 207.224 316.458 208.167 316.032 209.341C315.615 210.506 315.407 211.784 315.407 213.176C315.407 214.578 315.615 215.861 316.032 217.026C316.458 218.19 317.107 219.123 317.978 219.824C318.859 220.525 319.967 220.875 321.302 220.875ZM336.199 232.182V202.182H340.347V205.719H340.702C340.948 205.264 341.303 204.739 341.767 204.142C342.231 203.545 342.875 203.025 343.699 202.58C344.523 202.125 345.612 201.898 346.966 201.898C348.727 201.898 350.299 202.343 351.682 203.233C353.064 204.123 354.149 205.406 354.935 207.082C355.73 208.759 356.128 210.776 356.128 213.134C356.128 215.491 355.735 217.513 354.949 219.199C354.163 220.875 353.083 222.168 351.71 223.077C350.337 223.976 348.77 224.426 347.009 224.426C345.683 224.426 344.598 224.204 343.756 223.759C342.922 223.313 342.269 222.793 341.795 222.196C341.322 221.599 340.957 221.069 340.702 220.605H340.446V232.182H336.199ZM340.361 213.091C340.361 214.625 340.583 215.97 341.028 217.125C341.473 218.28 342.117 219.185 342.96 219.838C343.803 220.482 344.835 220.804 346.057 220.804C347.326 220.804 348.386 220.468 349.239 219.795C350.091 219.114 350.735 218.19 351.17 217.026C351.616 215.861 351.838 214.549 351.838 213.091C351.838 211.652 351.62 210.359 351.185 209.213C350.759 208.067 350.115 207.163 349.253 206.5C348.401 205.837 347.335 205.506 346.057 205.506C344.826 205.506 343.784 205.823 342.932 206.457C342.089 207.092 341.45 207.977 341.014 209.114C340.579 210.25 340.361 211.576 340.361 213.091ZM365.048 218.048L374.665 202.182H379.239V224H375.077V208.119L365.503 224H360.886V202.182H365.048V218.048ZM389.111 218.048L398.727 202.182H403.301V224H399.139V208.119L389.565 224H384.949V202.182H389.111V218.048Z" fill="white"/>
</svg>
